<svg xmlns="http://www.w3.org/2000/svg" width="30" height="37" viewBox="0 0 30 37"><g><g><path fill="#004970" d="M15.05 28.267c2.07 0 3.763-1.59 3.763-3.534 0-1.943-1.694-3.533-3.763-3.533-2.07 0-3.763 1.59-3.763 3.533 0 1.944 1.694 3.534 3.763 3.534zm11.287 5.3H3.762V15.9h22.575zM9.407 8.833c0-2.932 2.52-5.3 5.643-5.3 3.123 0 5.644 2.368 5.644 5.3v3.534H9.406zm16.93 3.534h-1.88V8.833C24.456 3.957 20.241 0 15.05 0S5.644 3.957 5.644 8.833v3.534H3.762C1.693 12.367 0 13.957 0 15.9v17.667C0 35.51 1.693 37.1 3.762 37.1h22.575c2.07 0 3.763-1.59 3.763-3.533V15.9c0-1.943-1.693-3.533-3.763-3.533z"/></g></g></svg>