<svg xmlns="http://www.w3.org/2000/svg" width="31" height="31" viewBox="0 0 31 31"><g><g><path fill="#3ab3ec" d="M15.5 13.95a2.322 2.322 0 0 1-2.325-2.325A2.322 2.322 0 0 1 15.5 9.3a2.322 2.322 0 0 1 2.325 2.325A2.322 2.322 0 0 1 15.5 13.95zm0-7.75a5.411 5.411 0 0 0-5.425 5.425A5.411 5.411 0 0 0 15.5 17.05a5.411 5.411 0 0 0 5.425-5.425A5.411 5.411 0 0 0 15.5 6.2zm9.858 16.787c-2.216-2.697-7.595-3.612-9.858-3.612-2.263 0-7.641.914-9.858 3.611A12.322 12.322 0 0 1 3.1 15.5c0-6.835 5.564-12.4 12.4-12.4 6.835 0 12.4 5.564 12.4 12.4 0 2.821-.961 5.41-2.542 7.487zm-17.5 2.247c.667-1.395 4.728-2.759 7.642-2.759 2.914 0 6.99 1.364 7.641 2.759A12.234 12.234 0 0 1 15.5 27.9c-2.883 0-5.534-.992-7.641-2.666zM15.5 0C6.944 0 0 6.944 0 15.5 0 24.056 6.944 31 15.5 31 24.056 31 31 24.056 31 15.5 31 6.944 24.056 0 15.5 0z"/></g></g></svg>