<svg xmlns="http://www.w3.org/2000/svg" width="25" height="33" viewBox="0 0 25 33"><g><g><path fill="#3ab3ec" d="M4.21 16.5c0-1.583 1.247-2.879 2.772-2.879 1.525 0 2.772 1.296 2.772 2.879s-1.247 2.879-2.772 2.879c-1.525 0-2.772-1.296-2.772-2.879zm4.851 5.038c.402-.173.762-.418 1.109-.691l-.028.043 1.4.562c.319.13.679 0 .845-.317l1.165-2.102a.749.749 0 0 0-.167-.92l-1.178-.98-.028.044c.028-.23.07-.461.07-.691 0-.23-.042-.461-.07-.691l.028.043 1.178-.979a.749.749 0 0 0 .167-.921l-1.165-2.102a.68.68 0 0 0-.845-.316l-1.4.561.028.043c-.347-.244-.707-.49-1.109-.662l-.236-1.554a.684.684 0 0 0-.679-.605H5.818a.684.684 0 0 0-.68.605l-.235 1.554c-.402.173-.762.418-1.109.691l.028-.043-1.414-.561a.665.665 0 0 0-.845.316L.399 13.967a.749.749 0 0 0 .166.92l1.178.98.028-.043c-.028.215-.07.446-.07.676 0 .23.042.46.07.69l-.028-.042-1.178.979a.749.749 0 0 0-.166.92l1.164 2.102a.68.68 0 0 0 .845.317l1.4-.561-.014-.058c.347.273.707.518 1.11.69l.235 1.541c.041.36.332.619.679.619h2.328c.347 0 .638-.26.68-.605l.235-1.554zM5.596 7.864h2.772v-2.88h13.86v23.031H8.368v-2.879H5.596v4.318c0 1.584 1.247 2.88 2.772 2.88h13.86c1.524 0 2.772-1.296 2.772-2.88V3.546c0-1.584-1.248-2.88-2.772-2.88H8.368c-1.525 0-2.772 1.296-2.772 2.88z"/></g></g></svg>